<?xml version="1.0" encoding="utf-8"?>
<!-- Generator: Adobe Illustrator 21.1.0, SVG Export Plug-In . SVG Version: 6.00 Build 0)  -->
<svg version="1.1" id="Layer_1" xmlns="http://www.w3.org/2000/svg" xmlns:xlink="http://www.w3.org/1999/xlink" x="0px" y="0px"
	 viewBox="0 0 60 60" style="enable-background:new 0 0 60 60;" xml:space="preserve">
<path d="M38.4,39.6h-7v-7c0-0.8-0.6-1.4-1.4-1.4s-1.4,0.6-1.4,1.4v7h-7c-0.8,0-1.4,0.6-1.4,1.4s0.6,1.4,1.4,1.4h7v7
	c0,0.8,0.6,1.4,1.4,1.4s1.4-0.6,1.4-1.4v-7h7c0.8,0,1.4-0.6,1.4-1.4S39.1,39.6,38.4,39.6z"/>
<path d="M58.6,9.7H46.8V3.2c0-0.8-0.6-1.4-1.4-1.4h-7.8c-0.8,0-1.4,0.6-1.4,1.4v6.6H23.7V3.2c0-0.8-0.6-1.4-1.4-1.4h-7.8
	c-0.8,0-1.4,0.6-1.4,1.4v6.6H1.4C0.6,9.7,0,10.4,0,11.1v12.7v2.8v30.3c0,0.8,0.6,1.4,1.4,1.4h57.2c0.8,0,1.4-0.6,1.4-1.4V26.5v-2.8
	V11.1C60,10.4,59.4,9.7,58.6,9.7z M39,4.5h5v11.7h-5V4.5z M16,4.5h5v11.7h-5V4.5z M57.2,55.5H2.8V26.5h54.5V55.5z M2.8,23.8V12.5
	h10.5v5.2c0,0.8,0.6,1.4,1.4,1.4h7.8c0.8,0,1.4-0.6,1.4-1.4v-5.2h12.6v5.2c0,0.8,0.6,1.4,1.4,1.4h7.8c0.8,0,1.4-0.6,1.4-1.4v-5.2
	h10.5v11.3H2.8z"/>
</svg>
