<?xml version="1.0" encoding="utf-8"?>
<!-- Generator: Adobe Illustrator 21.1.0, SVG Export Plug-In . SVG Version: 6.00 Build 0)  -->
<svg version="1.1" id="Layer_1" xmlns="http://www.w3.org/2000/svg" xmlns:xlink="http://www.w3.org/1999/xlink" x="0px" y="0px"
	 viewBox="0 0 60 60" style="enable-background:new 0 0 60 60;" xml:space="preserve">
<g>
	<g>
		<path d="M30,58.2c-0.5,0-0.9-0.3-1.2-0.7C28.1,56.4,12,29.2,12,19.8c0-9.9,8.1-18,18-18c9.9,0,18,8.1,18,18
			c0,9.5-16.1,36.6-16.8,37.8C30.9,58,30.5,58.2,30,58.2z M30,4.5c-8.4,0-15.2,6.8-15.2,15.2c0,7.3,11.5,27.8,15.2,34.3
			c3.8-6.5,15.2-27,15.2-34.3C45.2,11.4,38.4,4.5,30,4.5z"/>
	</g>
	<g>
		<path d="M30,30.7c-5.9,0-10.7-4.8-10.7-10.7c0-5.9,4.8-10.7,10.7-10.7c5.9,0,10.7,4.8,10.7,10.7C40.7,25.9,35.9,30.7,30,30.7z
			 M30,12c-4.4,0-8,3.6-8,8c0,4.4,3.6,8,8,8c4.4,0,8-3.6,8-8C38,15.6,34.4,12,30,12z"/>
	</g>
</g>
</svg>
