<?xml version="1.0" encoding="utf-8"?>
<!-- Generator: Adobe Illustrator 21.1.0, SVG Export Plug-In . SVG Version: 6.00 Build 0)  -->
<svg version="1.1" id="Layer_1" xmlns="http://www.w3.org/2000/svg" xmlns:xlink="http://www.w3.org/1999/xlink" x="0px" y="0px"
	 viewBox="0 0 60 60" style="enable-background:new 0 0 60 60;" xml:space="preserve">
<g>
	<path d="M30,55.4H17c-0.7,0-1.3,0.6-1.3,1.3S16.3,58,17,58h13c0.7,0,1.3-0.6,1.3-1.3S30.7,55.4,30,55.4z"/>
	<path d="M22.6,9.2c-0.5,0.5-0.5,1.3,0,1.7c0.3,0.3,0.6,0.4,0.9,0.4s0.6-0.1,0.9-0.4c1.4-1.4,1.4-3.8,0-5.2c-0.5-0.5-0.5-1.2,0-1.7
		s0.5-1.3,0-1.7s-1.3-0.5-1.7,0c-1.4,1.4-1.4,3.8,0,5.2C23.1,8,23.1,8.8,22.6,9.2z"/>
	<path d="M42.6,21.7H41v-2.6c0-0.7-0.6-1.3-1.3-1.3H23.5c-0.7,0-1.3,0.6-1.3,1.3s0.6,1.3,1.3,1.3h14.9V45c0,2.9-2.3,5.2-5.2,5.2
		H13.8c-2.9,0-5.2-2.3-5.2-5.2V20.4h9.1v5.2h-3.2c-0.7,0-1.3,0.6-1.3,1.3v10.4c0,0.7,0.6,1.3,1.3,1.3h9.1c0.7,0,1.3-0.6,1.3-1.3
		V26.9c0-0.7-0.6-1.3-1.3-1.3h-3.2v-7.8c0-0.7-0.6-1.3-1.3-1.3s-1.3,0.6-1.3,1.3H7.3c-0.7,0-1.3,0.6-1.3,1.3V45
		c0,4.3,3.5,7.8,7.8,7.8h19.4c4.3,0,7.8-3.5,7.8-7.8v-1.3H43c6,0,10.9-4.9,11-10.8C54.1,26.8,48.9,21.7,42.6,21.7z M22.2,36h-6.5
		v-7.8h6.5V36z M43,41.2H41V24.3H43c4.7,0,8.4,3.8,8.4,8.4S47.6,41.2,43,41.2z"/>
</g>
</svg>
