<svg id="Layer_1" data-name="Layer 1" xmlns="http://www.w3.org/2000/svg" viewBox="0 0 64 64"><defs><style>.cls-1{fill:#e3e3e3;}.cls-2{fill:#19c56b;}</style></defs><title>share-icon</title><rect class="cls-1" width="64" height="64"/><path class="cls-2" d="M44.38,52.29A6.53,6.53,0,0,1,38,45.7a8.87,8.87,0,0,1,.15-1.37l-17.21-9A6.51,6.51,0,1,1,21,26.91l17.5-8.44A5.43,5.43,0,0,1,38.33,17a6.58,6.58,0,1,1,1.19,3.79L22.21,29.21a6.82,6.82,0,0,1,.3,2,6.47,6.47,0,0,1-.35,1.95l17,8.82a6.49,6.49,0,0,1,11.74,3.93A6.48,6.48,0,0,1,44.38,52.29Zm.14-10.42a3.91,3.91,0,1,0,3.86,4A3.92,3.92,0,0,0,44.52,41.87ZM16,27.17a3.91,3.91,0,1,0,3.86,4A3.92,3.92,0,0,0,16,27.17Zm28.84-14a3.91,3.91,0,1,0,3.86,4A3.92,3.92,0,0,0,44.89,13.22Z"/></svg>