<?xml version="1.0" encoding="utf-8"?>
<!-- Generator: Adobe Illustrator 21.1.0, SVG Export Plug-In . SVG Version: 6.00 Build 0)  -->
<svg version="1.1" id="Layer_1" xmlns="http://www.w3.org/2000/svg" xmlns:xlink="http://www.w3.org/1999/xlink" x="0px" y="0px"
	 viewBox="0 0 60 60" style="enable-background:new 0 0 60 60;" xml:space="preserve">
<g>
	<path d="M49.5,4.7c-3.1,0-5.6,2.5-5.6,5.6v37.3c0,0.4,0.1,0.8,0.3,1.1l3.5,5.5c0.4,0.6,1.1,1,1.8,1c0.7,0,1.4-0.4,1.8-1l3.5-5.5
		c0.2-0.3,0.3-0.7,0.3-1.1V10.3C55.1,7.2,52.6,4.7,49.5,4.7z M46.5,15.9h6V44h-6V15.9z M49.5,7.3c1.7,0,3,1.4,3,3v3h-6v-3
		C46.5,8.6,47.8,7.3,49.5,7.3z M49.5,52.3l-3-4.8v-0.9h6v0.9L49.5,52.3z"/>
	<path d="M29.7,15.1H15c-0.7,0-1.3-0.6-1.3-1.3s0.6-1.3,1.3-1.3h14.7c0.7,0,1.3,0.6,1.3,1.3S30.4,15.1,29.7,15.1z"/>
	<path d="M29.7,22H15c-0.7,0-1.3-0.6-1.3-1.3s0.6-1.3,1.3-1.3h14.7c0.7,0,1.3,0.6,1.3,1.3C31,21.4,30.4,22,29.7,22z"/>
	<path d="M29.7,35.8H15c-0.7,0-1.3-0.6-1.3-1.3s0.6-1.3,1.3-1.3h14.7c0.7,0,1.3,0.6,1.3,1.3S30.4,35.8,29.7,35.8z"/>
	<path d="M29.7,42.7H15c-0.7,0-1.3-0.6-1.3-1.3s0.6-1.3,1.3-1.3h14.7c0.7,0,1.3,0.6,1.3,1.3S30.4,42.7,29.7,42.7z"/>
	<path d="M31.2,55.3h7.3c0.7,0,1.3-0.6,1.3-1.3V6c0-0.7-0.6-1.3-1.3-1.3H6.2C5.5,4.7,4.9,5.3,4.9,6v7.3v2.6V54
		c0,0.7,0.6,1.3,1.3,1.3h22.5H31.2z M37.3,52.7c-8.9,0-22.2,0-29.8,0c0-6.8,0-40.2,0-45.4h29.8V52.7z"/>
</g>
</svg>
