<?xml version="1.0" encoding="utf-8"?>
<!-- Generator: Adobe Illustrator 21.1.0, SVG Export Plug-In . SVG Version: 6.00 Build 0)  -->
<svg version="1.1" id="Layer_1" xmlns="http://www.w3.org/2000/svg" xmlns:xlink="http://www.w3.org/1999/xlink" x="0px" y="0px"
	 viewBox="0 0 1435.2 312.7" style="enable-background:new 0 0 1435.2 312.7;" xml:space="preserve">
<style type="text/css">
	.st0{fill:#FFFFFF;}
	.st1{clip-path:url(#SVGID_2_);}
</style>
<g>
	<path class="st0" d="M24.3,163.2c1.1,6.9,3.4,13.4,6.8,19.3c3.5,6,7.7,11.1,12.8,15.4c5.1,4.3,10.9,7.8,17.4,10.2
		c6.5,2.5,13.3,3.7,20.5,3.7c8,0,15.5-1.5,22.4-4.4c6.9-2.9,13.1-7,18.5-12.2c1.9-2,4.3-2.9,7.1-2.9c2.8,0,5.2,1,7.2,2.9
		c2,2,2.9,4.3,2.9,7.2c0,2.8-1,5.2-2.9,7.2c-7.2,8-15.2,13.7-24.2,17.1c-9,3.4-19.3,5-31,5c-10.8,0-21-2-30.4-5.9
		c-9.4-3.9-17.7-9.3-24.9-16.3c-7.2-6.9-12.8-15.2-16.9-24.7c-4.1-9.5-6.2-19.9-6.2-31.2c0-10.8,2-21,6-30.4
		c4-9.4,9.5-17.7,16.6-24.7c7-7,15.4-12.7,25-16.9c9.6-4.2,20.1-6.6,31.4-7c10.4,0,20.2,2.1,29.4,6.2c9.2,4.1,17.4,9.6,24.5,16.6
		c7.2,6.9,12.8,15.1,17.1,24.4c4.2,9.3,6.6,19.3,7,29.9c0.4,3.7-0.5,6.5-2.8,8.5c-2.3,1.9-4.7,2.9-7.3,2.9H24.3z M81.8,95.2
		c-7.1,0-13.9,1.2-20.3,3.7c-6.4,2.5-12.1,5.9-17.2,10.1c-5.1,4.2-9.3,9.3-12.7,15.1c-3.4,5.9-5.7,12.1-7,18.9h114.8
		c-1.3-6.7-3.7-13-7.2-18.9c-3.5-5.9-7.7-10.9-12.8-15.1c-5.1-4.2-10.8-7.6-17.2-10.1C95.8,96.5,89,95.2,81.8,95.2z"/>
	<path class="st0" d="M292.5,111.2c-5.4-4.8-11.6-8.6-18.5-11.5c-6.9-2.9-14.4-4.4-22.4-4.4c-8,0-15.6,1.5-22.6,4.5
		c-7,3-13.2,7.2-18.5,12.5c-5.3,5.3-9.5,11.5-12.5,18.7c-3,7.1-4.6,14.7-4.6,22.8c0,8,1.5,15.6,4.6,22.6c3,7,7.2,13.2,12.5,18.5
		c5.3,5.3,11.5,9.5,18.5,12.5c7,3,14.6,4.5,22.6,4.5c8,0,15.5-1.5,22.4-4.4c6.9-2.9,13.1-7,18.5-12.2c2-2,4.3-2.9,7.2-2.9
		c2.8,0,5.2,1,7.2,2.9c1.9,2,2.9,4.4,2.8,7.3c-0.1,2.9-1.4,5.6-3.7,8c-2,2-4.6,4.2-8,6.7c-3.4,2.5-7.4,4.8-12,7
		c-4.7,2.2-9.9,4-15.6,5.4c-5.8,1.4-12,2.1-18.7,2.1c-10.8,0-21-2-30.4-5.9c-9.4-3.9-17.7-9.3-24.9-16.3
		c-7.2-6.9-12.8-15.2-16.9-24.7c-4.1-9.5-6.2-19.9-6.2-31.2c0-10.8,2-21,6-30.4c4-9.4,9.5-17.7,16.6-24.7c7-7,15.4-12.7,25-16.9
		c9.6-4.2,20.1-6.6,31.4-7c6.5,0,12.5,0.8,18,2.4c5.5,1.6,10.5,3.6,15,5.9c4.4,2.3,8.4,4.7,11.9,7.3c3.5,2.6,6.3,4.9,8.4,6.8
		c1.3,1.1,2.4,3.1,3.4,6c1,2.9,0.3,5.6-2.1,8c-1.9,2-4.3,2.9-7.2,2.9C296.8,114.1,294.5,113.1,292.5,111.2z"/>
	<path class="st0" d="M519.8,222c0-2.8,1-5.2,2.9-7.2c1.9-2,4.3-2.9,7.2-2.9h70.2c6.3,0,11.7-2.3,16.3-6.8c4.5-4.6,6.8-10,6.8-16.3
		c0-6.3-2.3-11.7-6.8-16.3c-4.6-4.6-10-6.8-16.3-6.8h-38c-6.3,0-12.2-1.2-17.7-3.6c-5.5-2.4-10.4-5.6-14.5-9.8
		c-4.1-4.1-7.4-8.9-9.8-14.5c-2.4-5.5-3.6-11.4-3.6-17.7c0-6.3,1.2-12.2,3.6-17.9c2.4-5.6,5.6-10.5,9.8-14.6
		c4.1-4.1,8.9-7.4,14.5-9.8c5.5-2.4,11.4-3.6,17.7-3.6h66.3c2.8,0,5.2,1,7.1,2.9c2,1.9,2.9,4.3,2.9,7.1c0,2.8-1,5.2-2.9,7.2
		c-1.9,2-4.3,2.9-7.1,2.9H562c-6.9,0.2-12.9,2.8-17.9,7.8c-5,5-7.5,10.9-7.5,17.9c0,6.9,2.5,12.9,7.5,17.9c5,5,10.9,7.5,17.9,7.5h38
		c5.9,0,11.4,1.1,16.7,3.4c5.3,2.3,9.9,5.4,13.8,9.3c3.9,3.9,7,8.5,9.3,13.8c2.3,5.3,3.4,10.9,3.4,16.7c0,5.9-1.1,11.4-3.4,16.7
		c-2.3,5.3-5.4,9.9-9.3,13.8c-3.9,3.9-8.5,7-13.8,9.3c-5.3,2.3-10.9,3.4-16.7,3.4h-70.2c-2.8,0-5.2-1-7.2-2.9
		C520.7,227.2,519.8,224.8,519.8,222z"/>
	<path class="st0" d="M738.9,232.1c-12.1-0.4-23.2-3.5-33.2-9.3c-10-5.7-18.5-12.5-25.7-20.3v78.4c0,2.8-1,5.2-2.9,7.2
		c-2,1.9-4.3,2.9-7.1,2.9c-2.8,0-5.2-1-7.2-2.9c-1.9-2-2.9-4.3-2.9-7.2V153.1c0-11.3,2.1-21.7,6.2-31.2c4.1-9.5,9.8-17.8,16.9-24.7
		c7.2-6.9,15.4-12.4,24.9-16.3c9.4-3.9,19.6-5.9,30.4-5.9c11.1,0,21.3,2.1,30.9,6.2c9.5,4.1,17.8,9.8,24.9,16.9
		c7,7.2,12.6,15.4,16.7,24.9c4.1,9.4,6.2,19.5,6.2,30.1c0,10.8-2.1,21-6.3,30.6c-4.2,9.5-9.9,17.9-17.1,25
		c-7.2,7.2-15.4,12.8-24.9,17.1C759.2,230,749.3,232.1,738.9,232.1z M680,153.1c0.2,8.5,2,16.3,5.2,23.4c3.2,7.2,7.5,13.3,12.7,18.5
		c5.2,5.2,11.3,9.3,18.2,12.2c6.9,2.9,14.3,4.4,22.1,4.4c8,0,15.6-1.5,22.8-4.6c7.1-3,13.4-7.2,18.7-12.5
		c5.3-5.3,9.5-11.5,12.5-18.7c3-7.2,4.6-14.7,4.6-22.8c0-8-1.5-15.6-4.6-22.6c-3-7-7.2-13.2-12.5-18.5c-5.3-5.3-11.5-9.5-18.7-12.5
		c-7.2-3-14.7-4.6-22.8-4.6c-8,0-15.6,1.5-22.6,4.6c-7,3-13.2,7.2-18.5,12.5c-5.3,5.3-9.5,11.5-12.5,18.5
		C681.5,137.5,680,145.1,680,153.1z"/>
	<path class="st0" d="M847.1,163.2c1.1,6.9,3.4,13.4,6.8,19.3c3.5,6,7.7,11.1,12.8,15.4c5.1,4.3,10.9,7.8,17.4,10.2
		c6.5,2.5,13.3,3.7,20.5,3.7c8,0,15.5-1.5,22.4-4.4c6.9-2.9,13.1-7,18.5-12.2c1.9-2,4.3-2.9,7.2-2.9c2.8,0,5.2,1,7.2,2.9
		c1.9,2,2.9,4.3,2.9,7.2c0,2.8-1,5.2-2.9,7.2c-7.2,8-15.2,13.7-24.2,17.1c-9,3.4-19.3,5-31.1,5c-10.8,0-21-2-30.4-5.9
		c-9.4-3.9-17.7-9.3-24.9-16.3c-7.2-6.9-12.8-15.2-16.9-24.7c-4.1-9.5-6.2-19.9-6.2-31.2c0-10.8,2-21,6-30.4
		c4-9.4,9.5-17.7,16.6-24.7c7-7,15.4-12.7,25-16.9c9.6-4.2,20.1-6.6,31.4-7c10.4,0,20.2,2.1,29.4,6.2c9.2,4.1,17.4,9.6,24.5,16.6
		c7.2,6.9,12.8,15.1,17.1,24.4c4.2,9.3,6.6,19.3,7,29.9c0.4,3.7-0.5,6.5-2.8,8.5c-2.3,1.9-4.7,2.9-7.3,2.9H847.1z M904.7,95.2
		c-7.2,0-13.9,1.2-20.3,3.7c-6.4,2.5-12.1,5.9-17.2,10.1c-5.1,4.2-9.3,9.3-12.7,15.1c-3.4,5.9-5.7,12.1-7,18.9h114.8
		c-1.3-6.7-3.7-13-7.1-18.9c-3.5-5.9-7.8-10.9-12.8-15.1c-5.1-4.2-10.8-7.6-17.2-10.1C918.6,96.5,911.8,95.2,904.7,95.2z"/>
	<path class="st0" d="M997.3,152.4c0-10.6,2-20.6,6-30.1c4-9.4,9.5-17.7,16.6-24.9c7-7.2,15.2-12.8,24.5-16.9
		c9.3-4.1,19.3-6.3,29.9-6.5c3.5,0,6.2,1,8.3,2.9c2.1,2,3.1,4.3,3.1,7.2c0,2.8-1,5.2-3.1,7.1c-2.1,2-4.8,2.9-8.3,2.9
		c-7.8,0.2-15.2,1.9-22.1,5c-6.9,3.1-13,7.3-18.2,12.5c-5.2,5.2-9.3,11.3-12.2,18.4c-2.9,7-4.4,14.5-4.4,22.3V222
		c0,2.8-1,5.2-2.9,7.1c-2,2-4.3,2.9-7.2,2.9c-2.8,0-5.2-1-7.2-2.9c-2-2-2.9-4.3-2.9-7.1V152.4z"/>
	<path class="st0" d="M1092.2,39.3c0-3.7,1.3-6.8,3.9-9.4c2.6-2.6,5.7-3.9,9.4-3.9c3.7,0,6.8,1.3,9.4,3.9c2.6,2.6,3.9,5.7,3.9,9.4
		c0,3.7-1.3,6.8-3.9,9.4c-2.6,2.6-5.7,3.9-9.4,3.9c-3.7,0-6.8-1.3-9.4-3.9C1093.5,46.1,1092.2,43,1092.2,39.3z M1095.5,84.5
		c0-2.8,1-5.2,2.9-7.1c2-2,4.3-2.9,7.2-2.9c2.8,0,5.2,1,7.2,2.9c2,1.9,2.9,4.3,2.9,7.1V222c0,2.8-1,5.2-2.9,7.1
		c-1.9,2-4.3,2.9-7.2,2.9c-2.8,0-5.2-1-7.2-2.9c-1.9-2-2.9-4.3-2.9-7.1V84.5z"/>
	<path class="st0" d="M1133.9,31.8c0-2.8,1-5.2,2.9-7.2c1.9-2,4.3-2.9,7.2-2.9c2.8,0,5.2,1,7.1,2.9c2,1.9,2.9,4.3,2.9,7.2v41.6h71.8
		c3.5,0,6.2,1,8.3,2.9c2.1,2,3.1,4.3,3.1,7.2c0,2.8-1,5.2-3.1,7.2c-2.1,1.9-4.8,2.9-8.3,2.9H1154v60.1c0,8,1.5,15.6,4.6,22.6
		c3,7,7.2,13.2,12.5,18.5c5.3,5.3,11.5,9.5,18.5,12.5c7,3,14.6,4.5,22.6,4.5c8,0,15.5-1.5,22.4-4.4c6.9-2.9,13-7,18.2-12.2
		c1.7-2,3.9-3.1,6.7-3.4c2.7-0.3,5.2,0.4,7.6,2.1c1.7,1.7,2.8,3.9,3.2,6.5c0.4,2.6-0.1,5.1-1.6,7.5c-7.2,7.6-15.6,13.5-25.4,17.7
		c-9.8,4.2-20.2,6.3-31.2,6.3c-10.8,0-21-2.1-30.6-6.2c-9.5-4.1-17.8-9.7-24.9-16.7c-7-7-12.6-15.3-16.7-24.9
		c-4.1-9.5-6.2-19.7-6.2-30.6V31.8z"/>
	<path class="st0" d="M1431.6,280.9c0,2.8-1,5.2-2.9,7.2c-1.9,1.9-4.3,2.9-7.2,2.9c-2.8,0-5.2-1-7.2-2.9c-1.9-2-2.9-4.3-2.9-7.2
		v-74.8c-7.2,8-15.7,14.4-25.7,19c-10,4.7-20.8,7-32.5,7c-10.8,0-21-2.1-30.6-6.2c-9.5-4.1-17.8-9.7-24.9-16.7
		c-7-7-12.6-15.3-16.7-24.9c-4.1-9.5-6.2-19.7-6.2-30.6V84.2c0-2.8,1-5.2,2.9-7.2c1.9-1.9,4.3-2.9,7.2-2.9c2.8,0,5.2,1,7.2,2.9
		c1.9,2,2.9,4.3,2.9,7.2v69.6c0,8,1.5,15.6,4.5,22.6c3,7,7.2,13.2,12.5,18.5c5.3,5.3,11.5,9.5,18.5,12.5c7,3,14.6,4.5,22.6,4.5
		c7.8,0,15.2-1.5,22.1-4.4c6.9-2.9,13-6.9,18.2-11.9c5.2-5,9.4-10.9,12.5-17.7c3.1-6.8,4.9-14.1,5.4-21.9V84.2c0-2.8,1-5.2,2.9-7.2
		c2-1.9,4.3-2.9,7.2-2.9c2.8,0,5.2,1,7.2,2.9c2,2,2.9,4.3,2.9,7.2V156V280.9z"/>
	<g>
		<defs>
			<path id="SVGID_1_" d="M331,112.4c0-4.2,3-9.4,6.7-11.6l69-39.8c3.7-2.1,9.7-2.1,13.3,0l69,39.8c3.7,2.1,6.7,7.3,6.7,11.6v79.7
				c0,4.2-3,9.4-6.7,11.6l-69,39.8c-3.7,2.1-9.7,2.1-13.3,0l-69-39.8c-3.7-2.1-6.7-7.3-6.7-11.6V112.4z"/>
		</defs>
		<clipPath id="SVGID_2_">
			<use xlink:href="#SVGID_1_"  style="overflow:visible;"/>
		</clipPath>
		<g class="st1">
			<path class="st0" d="M423.8,292.1l11.3,12.8l18.7-16.6c43.5-38.6,61.9-66.1,31.5-100.4l-10.7-12l-15,13.3
				C410.1,233.2,396.7,261.6,423.8,292.1z"/>
			<path class="st0" d="M297.9,230.9l-5.4,16.2l23.7,7.9c55.2,18.5,88.1,20.7,102.7-22.7l5.1-15.2l-19.1-6.4
				C342.2,189.7,310.9,192.3,297.9,230.9z"/>
			<path class="st0" d="M286.2,93.4L269.5,97l5.3,24.4c12.4,56.9,27.4,86.3,72.1,76.6l15.7-3.4l-4.3-19.6
				C344.3,110.2,326.1,84.7,286.2,93.4z"/>
			<path class="st0" d="M401.2,15.1L389.8,2.3l-18.7,16.5c-43.5,38.6-61.9,66.1-31.5,100.4l10.7,12l15-13.3
				C414.9,73.9,428.2,45.6,401.2,15.1z"/>
			<path class="st0" d="M525.7,73.3l4.7-16.4l-24-6.9C450.5,33.8,417.5,33,404.8,77l-4.4,15.4l19.3,5.6
				C483.3,116.3,514.4,112.5,525.7,73.3z"/>
			<path class="st0" d="M538,215.6l16.8-2.9l-4.3-24.6c-10-57.3-23.7-87.4-68.8-79.6l-15.8,2.7l3.4,19.8
				C480.7,196.3,497.8,222.6,538,215.6z"/>
		</g>
	</g>
</g>
</svg>
